<svg version="1.1" viewBox="0.0 0.0 2000.0 2000.0" fill="none" stroke="none" stroke-linecap="square" stroke-miterlimit="10" xmlns:xlink="http://www.w3.org/1999/xlink" xmlns="http://www.w3.org/2000/svg"><clipPath id="p.0"><path d="m0 0l2000.0 0l0 2000.0l-2000.0 0l0 -2000.0z" clip-rule="nonzero"/></clipPath><g clip-path="url(#p.0)"><path fill="#000000" fill-opacity="0.0" d="m0 0l2000.0 0l0 2000.0l-2000.0 0z" fill-rule="evenodd"/><path fill="#000000" fill-opacity="0.0" d="m195.59055 320.83203l1608.8188 0l0 665.7953l-1608.8188 0z" fill-rule="evenodd"/><path fill="#0cc0df" d="m453.3325 843.4258q-3.734375 0 -8.0 -1.859375q-4.265625 -1.875 -4.265625 -5.59375q0 -4.8125 3.734375 -7.46875q3.734375 -2.671875 9.078125 -3.734375q20.265625 -4.265625 29.59375 -11.203125q9.328125 -6.9375 9.328125 -24.0l0 -220.26562q0 -20.796875 -1.0625 -30.65625q-1.0625 -9.875 -2.9375 -13.34375q-1.859375 -3.46875 -4.53125 -4.53125q-4.796875 -2.671875 -12.53125 -2.9375q-7.734375 -0.265625 -12.53125 -0.265625l-11.734375 0q-17.0625 0 -32.265625 8.265625q-15.203125 8.265625 -24.265625 20.53125q-2.671875 3.734375 -7.734375 10.40625q-5.0625 6.671875 -10.671875 11.734375q-5.59375 5.0625 -10.921875 5.0625q-4.28125 0 -5.875 -2.921875q-1.59375 -2.9375 -1.59375 -6.671875q0 -6.40625 3.1875 -13.34375q10.140625 -20.265625 14.9375 -34.65625q4.796875 -14.40625 6.40625 -33.078125q1.0625 -8.0 4.796875 -10.921875q3.734375 -2.9375 8.53125 -2.9375q3.734375 0 8.0 6.9375q4.265625 6.921875 9.0625 11.203125q5.34375 4.265625 17.875 6.40625q12.53125 2.125 20.53125 2.125l200.53128 0q13.328125 0 22.65625 -2.671875q9.34375 -2.671875 14.140625 -5.328125q8.53125 -4.8125 13.59375 -10.671875q5.078125 -5.859375 12.015625 -5.859375q3.1875 0 4.515625 2.40625q1.34375 2.390625 1.34375 6.65625q0 2.125 -0.265625 5.328125q-0.265625 3.203125 -0.796875 5.875q-2.671875 10.125 -5.34375 19.46875q-2.65625 9.328125 -4.265625 17.859375q-1.59375 8.53125 -1.59375 17.59375l0 10.671875q0 8.53125 -1.875 13.875q-1.859375 5.328125 -7.1875 5.328125q-4.8125 0 -8.015625 -5.0625q-3.1875 -5.078125 -6.921875 -16.28125q-5.875 -19.1875 -17.34375 -28.25q-11.453125 -9.078125 -34.921875 -9.078125l-27.734375 0q-9.0625 0 -14.671875 4.0q-5.59375 4.0 -8.265625 16.0q-2.65625 12.0 -2.65625 36.53125l0 214.9375q0 16.0 8.796875 23.203125q8.796875 7.1875 29.59375 12.53125q5.328125 1.59375 9.0625 3.734375q3.734375 2.125 3.734375 6.921875q0 3.734375 -3.203125 5.875q-3.1875 2.125 -7.984375 2.125q-11.734375 0 -26.40625 -0.796875q-14.671875 -0.796875 -29.34375 -1.328125q-14.65625 -0.53125 -25.328125 -0.53125q-11.1875 0 -25.328156 0.53125q-14.125 0.53125 -28.265625 1.328125q-14.140625 0.796875 -26.40625 0.796875z" fill-rule="nonzero"/><path fill="#ffffff" d="m759.46423 992.76953q-13.859375 0 -26.671875 -9.609375q-12.796875 -9.59375 -12.796875 -24.0q0 -10.125 5.328125 -20.0q5.34375 -9.859375 16.546875 -9.859375q8.53125 0 17.328125 2.921875q8.796875 2.9375 16.796875 2.40625q8.0 -1.0625 11.203125 -4.0q3.203125 -2.9375 7.46875 -10.9375q3.734375 -6.390625 7.203125 -12.53125q3.46875 -6.125 8.0 -15.46875q4.53125 -9.328125 11.46875 -24.265625q6.390625 -14.390625 6.390625 -25.59375q0 -8.0 -2.40625 -14.65625q-2.390625 -6.671875 -5.0625 -13.078125l-65.59375 -148.79688q-4.796875 -12.265625 -10.671875 -20.265625q-5.859375 -8.0 -16.0 -11.203125q-4.796875 -2.125 -7.46875 -4.53125q-2.65625 -2.40625 -2.65625 -7.203125q0 -3.734375 4.796875 -4.796875q4.796875 -1.0625 8.53125 -1.0625q12.796875 0 21.59375 0.53125q8.8125 0.53125 15.734375 1.0625q6.9375 0.53125 13.875 0.53125q11.734375 0 19.734375 -0.53125q8.0 -0.53125 17.0625 -1.0625q9.0625 -0.53125 21.34375 -0.53125q3.71875 0 7.984375 1.609375q4.28125 1.59375 4.28125 5.3125q0 4.8125 -4.0 6.6875q-4.0 1.859375 -8.265625 3.984375q-5.875 2.140625 -9.078125 6.40625q-3.203125 4.265625 -3.203125 13.859375q0 4.265625 1.328125 10.140625q1.34375 5.859375 4.546875 14.390625l33.0625 80.53125q0.53125 1.609375 1.609375 1.609375q0.53125 0 1.59375 -1.609375l27.203125 -81.59375q1.59375 -4.265625 2.921875 -10.390625q1.34375 -6.140625 1.34375 -10.9375q0 -9.078125 -5.34375 -14.671875q-5.328125 -5.59375 -11.1875 -7.734375q-4.265625 -1.59375 -8.265625 -3.71875q-4.0 -2.140625 -4.0 -6.953125q0 -3.71875 4.265625 -5.3125q4.265625 -1.609375 8.0 -1.609375q14.390625 0.53125 22.390625 1.328125q8.0 0.796875 16.53125 0.796875q5.34375 0 9.875 -0.265625q4.53125 -0.265625 10.921875 -0.796875q6.40625 -0.53125 15.46875 -1.0625q3.734375 0 8.265625 1.0625q4.546875 1.0625 4.546875 4.796875q0 4.796875 -2.40625 7.203125q-2.40625 2.40625 -7.203125 4.53125q-10.125 3.203125 -18.125 12.0q-8.0 8.796875 -13.34375 21.0625l-79.453125 190.9375q-4.265625 10.671875 -9.609375 23.203125q-5.328125 12.53125 -10.9375 25.859375q-5.59375 13.34375 -11.46875 27.203125q-5.859375 13.859375 -11.71875 27.203125q-6.40625 15.46875 -19.75 23.46875q-13.328125 8.0 -29.859375 8.0z" fill-rule="nonzero"/><path fill="#0cc0df" d="m989.87006 981.5664q-3.734375 0 -7.203125 -1.875q-3.46875 -1.859375 -3.46875 -5.59375q0 -4.265625 3.46875 -6.671875q3.46875 -2.390625 8.796875 -4.0q11.203125 -3.734375 15.734375 -7.734375q4.53125 -4.0 4.53125 -12.53125l0 -255.45312q0 -6.9375 -2.671875 -13.328125q-2.65625 -6.40625 -7.453125 -11.46875q-4.796875 -5.078125 -12.265625 -6.140625q-3.203125 -1.0625 -4.8125 -2.921875q-1.59375 -1.875 -1.59375 -6.6875q0 -4.265625 1.59375 -6.390625q1.609375 -2.140625 4.28125 -2.671875q18.65625 -4.265625 39.984314 -11.1875q21.34375 -6.9375 36.8125 -14.40625q2.125 -1.0625 4.515625 -2.390625q2.40625 -1.34375 4.546875 -1.34375q3.203125 0 4.0 1.875q0.796875 1.859375 0.796875 4.515625q0 4.28125 -1.34375 14.140625q-1.328125 9.859375 -1.328125 16.796875q0 5.34375 1.078125 6.40625q5.328125 -5.34375 18.921875 -14.40625q13.609375 -9.0625 31.203125 -16.0q17.609375 -6.9375 34.140625 -6.9375q28.796875 0 48.796875 15.203125q20.000122 15.203125 30.656372 38.9375q10.671875 23.734375 10.671875 49.859375q0 25.078125 -9.328125 48.546875q-9.328125 23.453125 -26.406372 42.390625q-17.0625 18.9375 -39.46875 30.140625q-22.390625 11.1875 -48.0 11.1875q-5.859375 0 -14.125 -1.59375q-8.265625 -1.59375 -16.53125 -4.265625q-8.265625 -2.671875 -15.203125 -5.328125q-0.53125 0 -1.0625 1.59375q-0.53125 1.59375 -0.796875 3.71875q-0.265625 2.140625 -0.265625 4.28125l0 88.53125q0 6.9375 3.453125 11.734375q3.46875 4.796875 9.859375 7.734375q6.40625 2.9375 15.484375 5.59375q5.328125 1.609375 8.53125 4.0q3.203125 2.40625 3.203125 6.671875q0 3.203125 -2.9375 5.328125q-2.9375 2.140625 -6.140625 2.140625q-16.0 0 -33.328125 -1.34375q-17.328125 -1.328125 -31.203125 -1.328125q-9.0625 0 -18.40625 0.53125q-9.328064 0.53125 -19.203064 1.328125q-9.859375 0.8125 -20.515625 0.8125zm137.59369 -154.67188q5.875 0 14.140625 -4.53125q8.265625 -4.53125 16.53125 -14.65625q8.265625 -10.140625 13.859375 -27.203125q5.609375 -17.078125 5.609375 -42.140625q0 -29.328125 -5.875 -46.65625q-5.859375 -17.34375 -14.40625 -25.875q-8.53125 -8.53125 -17.328125 -11.453125q-8.796875 -2.9375 -15.203125 -2.9375q-9.59375 0 -19.734375 4.265625q-10.125 4.265625 -16.53125 10.140625q-6.390625 5.859375 -6.390625 10.65625q0 4.265625 0 16.53125q0 12.265625 -0.265625 27.203125q-0.265625 14.921875 -0.53125 27.203125q-0.265625 12.265625 -0.265625 17.0625q0 12.265625 5.59375 26.9375q5.59375 14.65625 16.0 25.0625q10.40625 10.390625 24.796875 10.390625z" fill-rule="nonzero"/><path fill="#ffffff" d="m1352.5308 849.3008q-17.59375 0 -34.140625 -4.265625q-16.53125 -4.265625 -29.859375 -13.875q-4.796875 -8.0 -6.9375 -25.0625q-2.125 -17.0625 -1.59375 -35.734375q0 -6.390625 10.671875 -6.390625q4.265625 0 7.453125 2.671875q3.203125 2.65625 3.734375 5.328125q10.140625 22.390625 23.46875 38.125q13.328125 15.734375 32.0 15.734375q14.40625 0 21.859375 -8.796875q7.46875 -8.796875 7.46875 -20.0q0 -13.875 -10.9375 -23.203125q-10.921875 -9.328125 -26.390625 -17.328125q-15.46875 -8.0 -29.34375 -18.125q-13.859375 -10.140625 -22.65625 -24.265625q-8.796875 -14.140625 -8.796875 -33.875q0 -20.796875 11.46875 -36.265625q11.46875 -15.46875 30.921875 -24.265625q19.46875 -8.8125 43.46875 -8.8125q17.609375 0 32.53125 4.0q14.9375 4.0 20.28125 7.734375q4.265625 5.34375 6.921875 20.015625q2.671875 14.65625 2.671875 32.25q0 5.875 -9.59375 5.875q-3.734375 0 -7.734375 -2.65625q-4.0 -2.671875 -5.078125 -5.34375q-6.921875 -20.796875 -17.859375 -31.203125q-10.9375 -10.40625 -24.265625 -10.40625q-11.734375 0 -21.34375 7.46875q-9.59375 7.46875 -9.59375 20.265625q0 11.203125 10.390625 20.015625q10.40625 8.796875 25.875 17.328125q34.671875 18.125 49.59375 34.9375q14.9375 16.796875 14.9375 44.53125q0 34.65625 -22.671875 54.125q-22.65625 19.46875 -66.921875 19.46875z" fill-rule="nonzero"/><path fill="#0cc0df" d="m1573.3257 849.3008q-35.203125 0 -52.796875 -17.859375q-17.59375 -17.875 -17.59375 -50.40625l0 -122.671875q0 -4.796875 -3.46875 -6.921875q-3.46875 -2.140625 -13.078125 -2.671875l-6.921875 0q-3.734375 0 -6.140625 -6.125q-2.390625 -6.140625 -2.390625 -10.9375q0 -1.078125 0.796875 -2.9375q0.796875 -1.875 2.390625 -2.40625q12.8125 -4.796875 27.46875 -14.65625q14.671875 -9.875 28.265625 -21.0625q13.609375 -11.203125 22.140625 -18.671875q3.734375 -2.671875 6.390625 -4.796875q2.671875 -2.140625 6.9375 -2.140625q4.796875 0 6.921875 1.875q2.140625 1.859375 1.078125 8.796875l-3.203125 31.453125q-0.53125 6.40625 2.9375 8.8125q3.46875 2.390625 9.875 2.390625l63.453125 0q1.609375 0 3.203125 3.734375q1.609375 3.734375 1.609375 6.9375q0 7.46875 -2.140625 14.40625q-2.140625 6.921875 -4.796875 6.921875l-49.609375 0q-12.265625 0 -16.796875 2.9375q-4.53125 2.9375 -4.53125 10.40625l0 100.796875q0 24.53125 9.328125 36.53125q9.34375 12.0 24.8125 12.0q15.453125 0 22.65625 -3.203125q7.203125 -3.203125 13.078125 -5.328125q2.125 -1.078125 3.1875 -1.078125q2.671875 0 4.265625 3.203125q1.609375 3.203125 1.609375 7.46875q0 3.203125 -11.203125 11.734375q-11.203125 8.53125 -29.078125 16.0q-17.859375 7.46875 -38.65625 7.46875z" fill-rule="nonzero"/><path fill="#000000" fill-opacity="0.0" d="m263.65353 986.6273l1472.6929 0l0 620.5354l-1472.6929 0z" fill-rule="evenodd"/><path fill="#0cc0df" d="m522.5993 1387.4749q-2.96875 0 -2.96875 -2.984375q0 -8.4375 2.21875 -17.359375q2.234375 -8.921875 5.703125 -9.421875q23.8125 -3.46875 47.625 -6.6875q23.8125 -3.234375 47.609375 -5.71875q1.5 0 2.734375 0.75q1.234375 0.75 1.234375 2.234375q0 9.421875 -2.234375 17.609375q-2.21875 8.171875 -8.171875 9.171875q-22.328125 3.46875 -45.390625 6.703125q-23.0625 3.21875 -48.359375 5.703125z" fill-rule="nonzero"/><path fill="#ffffff" d="m746.78455 1479.2249q-27.265625 0 -47.609375 -13.390625q-20.328125 -13.390625 -31.75 -37.9375q-11.40625 -24.5625 -11.40625 -56.796875q0 -28.765625 13.140625 -52.328125q13.15625 -23.5625 34.96875 -37.9375q21.828125 -14.390625 47.625 -14.390625q19.84375 0 35.21875 7.9375q15.375 7.9375 24.046875 22.078125q8.6875 14.125 8.6875 32.484375q0 15.375 -14.875 15.375l-104.65625 0q-6.953125 0 -9.6875 3.71875q-2.71875 3.71875 -2.71875 14.625q0 23.8125 10.40625 43.40625q10.421875 19.59375 27.78125 31.25q17.359375 11.65625 38.203125 11.65625q14.875 0 27.015625 -5.703125q12.15625 -5.703125 21.578125 -16.625q1.984375 -2.46875 2.96875 -3.21875q1.0 -0.75 2.5 -0.75q3.96875 0 3.96875 4.96875q0 9.421875 -8.9375 20.828125q-7.4375 9.421875 -17.859375 16.375q-10.40625 6.9375 -22.8125 10.65625q-12.390625 3.71875 -25.796875 3.71875zm-45.625 -150.28125l45.140625 0q11.90625 0 20.328125 -0.5q8.4375 -0.5 16.375 -1.984375q2.484375 -0.5 3.21875 -3.21875q0.75 -2.734375 0.75 -7.6875q0 -14.390625 -12.65625 -24.546875q-12.640625 -10.171875 -30.0 -10.171875q-11.40625 0 -22.828125 6.703125q-11.40625 6.6875 -18.84375 16.609375q-7.4375 9.90625 -7.4375 19.828125q0 4.96875 5.953125 4.96875z" fill-rule="nonzero"/><path fill="#0cc0df" d="m858.88086 1473.2717q-4.953125 0 -7.4375 -1.234375q-2.46875 -1.234375 -2.46875 -4.21875q0 -3.96875 2.96875 -5.203125q2.984375 -1.25 8.4375 -2.734375q9.421875 -2.484375 14.125 -7.1875q4.71875 -4.71875 4.71875 -11.65625l0 -106.640625q0 -13.390625 -3.96875 -23.3125q-3.96875 -9.921875 -16.375 -12.40625q-1.984375 -0.484375 -3.46875 -2.46875q-1.484375 -1.984375 -1.484375 -3.96875q0 -4.96875 4.46875 -5.953125q12.890625 -3.96875 27.015625 -11.65625q14.140625 -7.6875 22.078125 -12.65625q2.984375 -1.984375 4.71875 -2.71875q1.734375 -0.75 2.734375 -0.75q2.46875 0 2.46875 3.46875q0 1.5 -0.25 7.453125q-0.234375 5.9375 -0.484375 13.875q-0.25 7.9375 -0.75 15.875q0 1.0 1.0 1.0q7.921875 -9.921875 17.59375 -17.359375q9.671875 -7.453125 19.84375 -11.90625q10.171875 -4.46875 19.59375 -4.46875q10.421875 0 17.109375 4.46875q6.703125 4.453125 6.703125 11.40625q0 4.953125 -2.734375 10.90625q-2.71875 5.953125 -7.1875 10.421875q-4.46875 4.453125 -9.421875 4.453125q-2.984375 0 -6.453125 -1.234375q-3.46875 -1.234375 -7.4375 -3.21875q-3.96875 -1.484375 -7.9375 -2.96875q-3.96875 -1.5 -7.9375 -1.5q-11.90625 0 -23.0625 8.4375q-11.15625 8.421875 -11.15625 33.234375l0 100.1875q0 6.453125 6.9375 10.671875q6.953125 4.203125 19.34375 8.171875q5.453125 1.484375 8.421875 2.984375q2.984375 1.484375 2.984375 4.953125q0 5.453125 -9.921875 5.453125q-14.875 0 -22.5625 -1.234375q-7.6875 -1.234375 -20.578125 -1.234375q-8.4375 0 -13.65625 0.5q-5.203125 0.484375 -10.90625 1.21875q-5.703125 0.75 -15.625 0.75z" fill-rule="nonzero"/><path fill="#ffffff" d="m1022.0761 1473.2717q-4.46875 0 -7.203125 -1.234375q-2.71875 -1.234375 -2.71875 -4.21875q0 -3.96875 3.71875 -5.453125q3.71875 -1.484375 7.6875 -2.484375q10.421814 -2.484375 15.874939 -6.203125q5.453125 -3.71875 5.453125 -12.640625l0 -107.640625q0 -13.390625 -4.71875 -23.796875q-4.703125 -10.421875 -17.609314 -12.40625q-2.46875 -0.5 -3.71875 -1.984375q-1.234375 -1.484375 -1.234375 -4.46875q0 -5.453125 4.46875 -5.9375q19.828064 -4.46875 32.71869 -12.15625q12.90625 -7.6875 19.359375 -12.65625q4.46875 -3.46875 6.9375 -3.46875q2.984375 0 2.984375 2.484375q0 3.96875 -1.25 15.625q-1.234375 11.65625 -2.234375 25.796875q-0.984375 14.125 -0.984375 25.53125l0 115.078125q0 8.4375 5.703125 12.40625q5.703125 3.953125 15.625 6.4375q3.96875 1.0 7.6875 2.484375q3.71875 1.484375 3.71875 5.453125q0 5.453125 -9.921875 5.453125q-9.421875 0 -15.125 -0.75q-5.703125 -0.734375 -10.921875 -1.21875q-5.203125 -0.5 -14.125 -0.5q-8.4375 0 -13.890625 0.5q-5.453125 0.484375 -10.90625 1.21875q-5.453125 0.75 -15.374939 0.75zm39.671814 -257.42188q-10.40625 0 -17.609375 -7.1875q-7.1875 -7.1875 -7.1875 -17.609375q0 -10.90625 7.1875 -18.09375q7.203125 -7.203125 17.609375 -7.203125q10.921875 0 18.109375 7.203125q7.1875 7.1875 7.1875 18.09375q0 10.421875 -7.1875 17.609375q-7.1875 7.1875 -18.109375 7.1875z" fill-rule="nonzero"/><path fill="#0cc0df" d="m1215.518 1478.7249q-24.3125 0 -37.953125 -14.875q-13.640625 -14.875 -13.640625 -44.140625l0 -115.078125q0 -3.96875 -2.984375 -5.703125q-2.96875 -1.734375 -12.890625 -1.734375l-2.96875 0q-2.484375 0 -4.21875 -3.21875q-1.734375 -3.234375 -1.734375 -6.703125q0 -0.984375 1.484375 -2.96875q1.5 -1.984375 1.984375 -2.484375q9.921875 -6.9375 18.109375 -13.875q8.1875 -6.953125 14.875 -13.640625q6.703125 -6.703125 11.15625 -12.15625q2.484375 -2.484375 4.21875 -4.21875q1.734375 -1.734375 4.21875 -1.734375q2.484375 0 4.71875 1.0q2.234375 0.984375 1.734375 4.453125l-2.484375 22.3125q-0.5 5.453125 2.46875 7.4375q2.984375 1.984375 9.4375 1.984375l56.546875 0q1.984375 0 3.46875 3.234375q1.484375 3.21875 1.484375 7.6875q0 4.453125 -1.484375 8.671875q-1.484375 4.21875 -3.46875 4.21875l-49.109375 0q-12.40625 0 -16.125 1.984375q-3.71875 1.984375 -3.71875 11.90625l0 97.71875q0 19.828125 8.4375 31.234375q8.4375 11.40625 24.296875 11.40625q14.390625 0 22.328125 -2.21875q7.9375 -2.234375 14.375 -6.703125q1.0 -0.984375 1.984375 -0.984375q1.984375 0 2.734375 2.234375q0.75 2.21875 0.75 4.703125q0 2.484375 -8.1875 9.921875q-8.1875 7.4375 -21.328125 13.875q-13.140625 6.453125 -28.515625 6.453125z" fill-rule="nonzero"/><path fill="#ffffff" d="m1309.262 1613.1467q-9.4375 0 -17.375 -4.71875q-7.921875 -4.703125 -7.921875 -15.609375q0 -8.9375 4.203125 -15.640625q4.21875 -6.6875 12.15625 -6.6875q5.453125 0 10.65625 1.484375q5.21875 1.5 9.1875 1.5q2.96875 0 5.203125 -1.25q2.234375 -1.234375 4.21875 -4.21875q5.453125 -8.921875 12.640625 -22.3125q7.203125 -13.390625 14.890625 -30.265625q7.6875 -16.859375 14.625 -35.703125q1.5 -4.46875 1.5 -11.40625q0 -3.96875 -0.5 -7.6875q-0.5 -3.71875 -1.484375 -6.703125l-57.546875 -145.32812q-3.46875 -8.921875 -9.171875 -15.609375q-5.703125 -6.703125 -13.140625 -8.6875q-3.96875 -1.484375 -7.6875 -3.46875q-3.71875 -1.984375 -3.71875 -5.46875q0 -2.96875 3.71875 -3.703125q3.71875 -0.75 6.203125 -0.75q9.90625 0 14.625 0.5q4.71875 0.484375 8.921875 1.234375q4.21875 0.734375 12.65625 0.734375q8.921875 0 13.390625 -0.734375q4.46875 -0.75 9.421875 -1.234375q4.96875 -0.5 14.875 -0.5q2.984375 0 6.453125 1.234375q3.46875 1.234375 3.46875 4.21875q0 3.46875 -5.203125 6.703125q-5.203125 3.21875 -9.171875 4.203125q-4.96875 1.484375 -7.453125 5.21875q-2.46875 3.71875 -2.46875 10.65625q0 2.984375 1.484375 7.203125q1.484375 4.203125 2.484375 6.6875l40.171875 99.203125q1.0 2.96875 2.984375 2.96875q1.484375 0 2.46875 -2.96875l34.234375 -90.765625q1.484375 -3.484375 2.71875 -9.1875q1.25 -5.703125 1.25 -9.171875q0 -9.421875 -2.734375 -13.140625q-2.734375 -3.71875 -7.1875 -5.703125q-3.96875 -1.984375 -9.1875 -5.203125q-5.203125 -3.234375 -5.203125 -6.703125q0 -2.984375 3.71875 -4.21875q3.71875 -1.234375 6.203125 -1.234375q6.9375 0 14.125 1.234375q7.203125 1.234375 21.09375 1.234375q9.421875 0 13.640625 -0.734375q4.21875 -0.75 7.1875 -1.234375q2.984375 -0.5 8.4375 -0.5q2.46875 0 6.1875 0.75q3.734375 0.734375 3.734375 3.703125q0 3.484375 -3.734375 5.46875q-3.71875 1.984375 -7.6875 3.46875q-7.4375 1.984375 -15.875 11.65625q-8.421875 9.671875 -13.375 21.578125l-67.46875 160.70312q-0.484375 1.484375 -5.203125 12.890625q-4.703125 11.40625 -11.65625 28.265625q-6.9375 16.875 -15.125 36.21875q-8.1875 19.34375 -15.625 37.203125q-4.46875 9.90625 -12.90625 15.109375q-8.421875 5.21875 -19.328125 5.21875z" fill-rule="nonzero"/></g></svg>